<?xml version="1.0" standalone="no"?><!DOCTYPE svg PUBLIC "-//W3C//DTD SVG 1.1//EN" "http://www.w3.org/Graphics/SVG/1.1/DTD/svg11.dtd"><svg t="1737619450842" class="icon" viewBox="0 0 1024 1024" version="1.1" xmlns="http://www.w3.org/2000/svg" p-id="11052" xmlns:xlink="http://www.w3.org/1999/xlink" width="200" height="200"><path d="M288.6 389.1H866c13 0-26.7 10.8-21 24 5.7 13.2-19.5 25.8-27.6 37.3L566.3 806.7c-6.4 9.1-16.1 14.4-26.4 14.4-10.4 0-49.8-1.4-56.3-10.5L262.2 450.4c-8.1-11.5-9.6-26.8-3.9-39.9s17.3-21.4 30.3-21.4z m-7.2 33.9" fill="#25B195" p-id="11053"></path><path d="M153.2 292.4H877c18.8 0 35.5 10.5 43.7 27.4 8.2 16.9 6 36.5-5.6 51.3L553.2 828.5c-9.3 11.7-23.1 18.4-38.1 18.4-14.9 0-28.8-6.7-38.1-18.4L115.2 371c-11.6-14.7-13.8-34.4-5.6-51.3s24.9-27.3 43.6-27.3z m371 513.2L886 348.1c4.1-5.1 2.3-10.2 1.3-12.2-0.9-2-3.9-6.5-10.4-6.5H153.2c-6.5 0-9.5 4.6-10.4 6.5-0.9 2-2.7 7.1 1.3 12.2L506 805.6c3 3.8 7 4.4 9.1 4.4 2.1 0 6.1-0.6 9.1-4.4z" fill="#595857" p-id="11054"></path></svg>