<?xml version="1.0" standalone="no"?><!DOCTYPE svg PUBLIC "-//W3C//DTD SVG 1.1//EN" "http://www.w3.org/Graphics/SVG/1.1/DTD/svg11.dtd"><svg t="1737620012420" class="icon" viewBox="0 0 1024 1024" version="1.1" xmlns="http://www.w3.org/2000/svg" p-id="12585" xmlns:xlink="http://www.w3.org/1999/xlink" width="200" height="200"><path d="M508 910.1c206.8 0 374-163.3 374-363.9 0-235-129.4-332.3-374-332.3-118 0-209 22.9-271.8 73-8.2 6.5-16 13.5-23.3 21.1-7.4 7.6-14.2 15.7-20.6 24.3C154 384.2 134 454.7 134 546.2c0 200.7 167.2 363.9 374 363.9z m0 0" fill="#FF684A" p-id="12586"></path><path d="M260.2 831.4C178.3 770.7 126 677.7 126 573.6c0-83.2 19.2-147.3 56.1-194.5 6.1-7.8-6.3-15.2 0.8-22.1 7-6.8 33.5-57.2 41.4-63.2 60.4-45.5 147.9-81.4 261.4-81.4 13.2 0 26.1 0.3 38.7 0.8-105.3 4.5-176.8 44-236 88.1-8.7 6.5-36.4 36.9-47.1 49-7.2 8.1-21.7 31-28.5 45.6-27.9 59.4-43.7 114.4-43.7 205.2 0.1 87.4 34.2 167.7 91.1 230.3z m0 0" fill="#FFA492" p-id="12587"></path><path d="M317.9 277.7c-59.8-11.1-48.7-41-44.2-45.5 0.4-0.8 2.9-2.9 3.7-3.7 42.6-39.3 126.2-27 162.6-20.1 9.4 1.6 22.5-1.2 18.8-15.6-6.6-24.2-8.6-29.1-8.6-29.1-23.8-50.4 13.1-51.2 13.1-51.2C505.9 110.9 562 133 562 133c29.5 9 0 36.9 0 36.9-14.7 14.7 16.2 26.1 28.2 29.8 2.2 0.7 4.7 0.5 6.7-0.7 14.6-8.6 84.7 0.8 91.6 2 0.4 0 5.3 1.2 5.7 1.2 50 10.2 45.5 35.2 44.2 39.3 0 0-0.4 0.4-0.4 0.8-9.8 21.7-69.2 32.8-79.1 34.4-0.8 0-9 2-14.3 2.5-36.5 3.3-19.3 15.6-19.3 15.6s35.2 31.5 47.1 68c11.9 36.5-52.8 53.3-76.6 21.7s-37.3-33.6-71.7-36.5c-30.7-2.9-77.8 42.2-87.7 52-1.2 1.2-5.7 4.5-7.4 5.3-56.1 31.5-56.1-15.2-56.1-15.2-0.8-13.1 20.5-54.5 31.1-73.7 4.1-7 2-16-4.5-20.5-21.3-13.9-59.8-16.8-70.4-17.2-1.4 0.2-8.4-0.6-11.2-1z" fill="#7EB35E" p-id="12588"></path><path d="M396.5 426.4c-6.3 0-11.9-1.4-16.7-4.3-13-7.6-16.5-23.2-16.6-31.5-0.7-16.4 20-56.4 32.4-78.8l0.1-0.2c1.4-2.4 0.7-5.5-1.5-7.1-16.8-10.9-48.7-14.9-65.1-15.5-3.1-0.1-11.5-1.2-12.6-1.3l-0.4-0.1c-31.1-5.7-49.5-17.3-54.8-34.4-3.3-10.6-0.2-21.5 4.5-27.1 1-1.3 2.2-2.5 3.8-3.9l0.7-0.7 0.3-0.3c32.4-29.9 91.6-37.7 171.2-22.6 4 0.7 6.9-0.1 7.7-0.7 0-0.3 0.1-1-0.3-2.5-5.5-20.4-7.7-26.6-8.1-27.7-10.1-21.6-11.5-38.6-4.1-50.6 8.4-13.5 23.8-14.5 26-14.5 42.8-1.6 97 18.9 102.3 21 13.4 4.2 17.8 12.1 19.2 17.9 3.8 16.1-12 32.2-15.5 35.5-0.3 0.3-0.5 0.5-0.6 0.7 1.7 2.3 8.9 7.4 24.2 12.3 5.8-3.1 17.6-6.1 53.7-3.6 19.5 1.4 38.5 3.9 43.5 4.7 0.9 0.1 1.9 0.3 3.8 0.8 0.6 0.1 1.1 0.3 1.6 0.4h0.1l1 0.2c24.2 5 40.4 14 48.1 27 6.9 11.5 4.6 22 3.7 25v0.2l-0.1 0.3-0.6 2-0.6 0.6c-5.8 11.6-20.5 21.1-45.1 29.2-18.9 6.2-37.5 9.5-41 10l-0.9 0.1c-0.4 0.1-1 0.2-1.6 0.3-3.4 0.7-8.5 1.8-12.7 2.1-4.4 0.4-7.6 0.9-10 1.4 9.6 9.3 36 37.1 46.5 69.1 5.9 18-1.8 35-20.1 44.5-22 11.5-56.5 9.5-74-13.7-21.8-28.9-32.6-29.8-64.5-32.5-19.4-1.8-54 23.4-79.8 49.1-1.9 1.9-7 5.6-9.7 7-14.3 8.2-26.8 12.2-37.4 12.2zM413 321.6c-19.2 34.7-30.2 61.9-29.8 68.2v0.6s0.3 10.9 6.7 14.6c6.3 3.6 18.8 0.6 34.5-8.1l0.4-0.2c1-0.6 4-2.7 4.9-3.5 13.8-13.8 61.1-58.1 95.6-54.9 35.7 3 52.6 5.8 78.7 40.4 10.8 14.4 34 15.7 48.8 8 6.6-3.5 13.8-9.8 10.3-20.6-10.4-31.8-40.6-60.3-44-63.4-4.7-3.6-9.2-10.2-7.2-17.7 3.1-11.6 18.7-14.4 31.9-15.6h0.1c2.9-0.2 7.5-1.2 10.2-1.7 1.7-0.4 2.8-0.6 3.6-0.7 30.2-5.1 64.8-16.5 70.9-28 0.1-0.3 0.2-0.6 0.4-0.9 0.2-1.4 0.3-4.6-1.9-8.2-4.6-7.6-16.8-13.8-34.6-17.5-0.8-0.1-1.8-0.4-3.5-0.7-0.7-0.2-1.5-0.3-1.9-0.4l-0.3-0.1c-3.6-0.6-22.5-3.1-41.9-4.5-35.9-2.5-42.7 1.1-43 1.3-4.4 2.6-9.8 3.2-14.7 1.6-22.9-7.1-35.9-16.3-38.6-27.2-1-3.9-1.4-11.5 6.3-19.2l0.2-0.2c5.2-5 10.7-13.3 9.9-16.6-0.2-0.9-2.2-2.3-6-3.5l-0.7-0.3c-0.5-0.2-54.7-21.3-94.7-19.8h-0.1c-0.4 0-6.9 0.5-9.8 5.2-3.4 5.7-1.5 17.3 5.4 31.8l0.2 0.4c0.4 0.9 2.6 6.7 9 30.3v0.1c2.9 11.2-1.5 18-4.3 21-5.7 6.1-15.4 8.7-26 6.9h-0.2c-73-14-126.2-7.9-153.9 17.5-0.3 0.3-0.7 0.7-1.2 1.1-0.3 0.2-0.7 0.6-1 0.9l-0.2 0.3-0.5 0.7c-0.4 0.7-2.3 4.4-0.3 9.1 3.5 8.6 17.6 15.7 38.8 19.7 3.1 0.4 8.8 1.1 9.9 1.1h0.3c8.3 0.3 50.9 2.7 75.5 18.8l0.2 0.1c10.9 7.6 14.2 22.3 7.6 33.8z m247.3-34.8zM568 178.3z" fill="#333333" p-id="12589"></path><path d="M303.2 837.9c32.6 7.9 66.7 12 102 12 221.9 0 401.7-166 401.7-370.8 0-76.4-14.8-136.8-41-184.3 87.1 44.8 143 128.2 143 271.6 0 190.8-167.5 345.4-374.1 345.4-87.5 0.1-167.9-27.6-231.6-73.9z m0 0" fill="#ED5234" p-id="12590"></path><path d="M511 925.8c-54.9 0-108.3-9.9-158.5-29.4-48.6-18.9-92.2-45.9-129.7-80.3-37.6-34.5-67.1-74.7-87.7-119.5-21.4-46.5-32.3-95.9-32.3-146.8 0-53.8 12.1-105.7 35.9-154.3 22.9-46.9 55.5-88.3 96.9-123.1 6.3-5.3 15.8-4.5 21.1 1.8 5.3 6.3 4.5 15.8-1.8 21.1-77.6 65.4-122.1 158.1-122.1 254.5 0 190.7 169.6 345.9 378.2 345.9 208.5 0 378.2-155.2 378.2-345.9 0-103.4-50-200.5-137.1-266.5-6.6-5-7.9-14.4-2.9-21s14.4-7.9 21-2.9c94.7 71.7 149 177.6 149 290.4 0 50.9-10.9 100.3-32.3 146.8-20.6 44.8-50.2 85-87.7 119.5-37.5 34.4-81.1 61.4-129.7 80.3-50.2 19.5-103.5 29.4-158.5 29.4z" fill="#333333" p-id="12591"></path></svg>